{
	"asset":{
		"generator":"Khronos glTF Blender I/O v3.6.27",
		"version":"2.0"
	},
	"scene":0,
	"scenes":[
		{
			"name":"Scene",
			"nodes":[
				0
			]
		}
	],
	"nodes":[
		{
			"mesh":0,
			"name":"BALLOON",
			"scale":[
				1.0832711458206177,
				1.0832711458206177,
				1.0832711458206177
			],
			"translation":[
				0.020671844482421875,
				0,
				-0.06179133802652359
			]
		}
	],
	"materials":[
		{
			"doubleSided":true,
			"name":"Material.001",
			"pbrMetallicRoughness":{
				"baseColorFactor":[
					0.800000011920929,
					0.800000011920929,
					0.800000011920929,
					1
				],
				"metallicFactor":0.43119266629219055,
				"roughnessFactor":0.5
			}
		}
	],
	"meshes":[
		{
			"name":"Cycloid.003",
			"primitives":[
				{
					"attributes":{
						"POSITION":0,
						"NORMAL":1,
						"TEXCOORD_0":2
					},
					"indices":3,
					"material":0
				}
			]
		}
	],
	"accessors":[
		{
			"bufferView":0,
			"componentType":5126,
			"count":6992,
			"max":[
				3.142801284790039,
				9.731992721557617,
				3.087292194366455
			],
			"min":[
				-3.083930015563965,
				0.17289164662361145,
				-2.9710423946380615
			],
			"type":"VEC3"
		},
		{
			"bufferView":1,
			"componentType":5126,
			"count":6992,
			"type":"VEC3"
		},
		{
			"bufferView":2,
			"componentType":5126,
			"count":6992,
			"type":"VEC2"
		},
		{
			"bufferView":3,
			"componentType":5123,
			"count":38232,
			"type":"SCALAR"
		}
	],
	"bufferViews":[
		{
			"buffer":0,
			"byteLength":83904,
			"byteOffset":0,
			"target":34962
		},
		{
			"buffer":0,
			"byteLength":83904,
			"byteOffset":83904,
			"target":34962
		},
		{
			"buffer":0,
			"byteLength":55936,
			"byteOffset":167808,
			"target":34962
		},
		{
			"buffer":0,
			"byteLength":76464,
			"byteOffset":223744,
			"target":34963
		}
	],
	"buffers":[
		{
			"byteLength":300208,
			"uri":"data:application/octet-stream;base64,"
		}
	]
}
