<?xml version="1.0" standalone="no"?>
<!DOCTYPE svg PUBLIC "-//W3C//DTD SVG 20010904//EN"
 "http://www.w3.org/TR/2001/REC-SVG-20010904/DTD/svg10.dtd">
<svg version="1.0" xmlns="http://www.w3.org/2000/svg"
 width="840.000000pt" height="840.000000pt" viewBox="0 0 840.000000 840.000000"
 preserveAspectRatio="xMidYMid meet">

<g transform="translate(0.000000,840.000000) scale(0.100000,-0.100000)"
fill="#000000" stroke="none">
<path d="M0 7610 l0 -790 788 2 787 3 3 788 2 787 -790 0 -790 0 0 -790z
m1340 20 l0 -570 -570 0 -570 0 0 570 0 570 570 0 570 0 0 -570z"/>
<path d="M430 7625 l0 -345 343 2 342 3 3 343 2 342 -345 0 -345 0 0 -345z"/>
<path d="M2032 8303 l3 -98 228 -3 227 -2 0 -346 0 -345 -112 3 -113 3 -3 228
-2 227 -115 0 -115 0 0 -230 0 -230 -115 0 -116 0 3 -112 3 -113 113 -3 112
-3 0 -109 0 -109 -112 -3 -113 -3 -3 -227 -2 -228 -228 -2 -227 -3 -3 -112 -3
-112 -112 -3 -112 -3 -3 -227 -2 -228 -225 0 -225 0 0 230 0 230 115 0 116 0
-3 113 -3 112 -227 3 -228 2 0 -115 0 -115 -215 0 -215 0 0 -230 0 -229 98 -3
97 -3 3 -112 3 -112 112 -3 112 -3 3 -212 2 -213 -215 0 -215 0 0 -115 0 -115
100 0 100 0 0 -115 0 -115 -100 0 -100 0 0 -230 0 -230 100 0 100 0 0 -115 0
-115 -100 0 -100 0 0 -115 0 -115 100 0 101 0 -3 -112 -3 -113 -97 -3 -98 -3
0 -115 0 -115 98 3 97 3 3 112 3 112 112 3 112 3 3 343 2 342 230 0 230 0 0
-115 0 -115 -115 0 -115 0 0 -345 0 -345 225 0 225 0 0 -230 0 -230 -225 0
-225 0 0 115 0 115 -115 0 -115 0 0 -210 0 -210 -115 0 -115 0 0 -230 0 -230
-100 0 -100 0 0 -115 0 -115 100 0 100 0 0 115 0 115 115 0 115 0 0 230 0 230
345 0 345 0 0 95 0 95 110 0 110 0 0 -95 0 -95 115 0 115 0 0 -115 0 -114
-112 -3 -113 -3 -3 -112 -3 -113 231 0 230 0 0 -115 0 -115 115 0 115 0 0
-115 0 -114 -112 -3 -113 -3 -3 -227 -2 -228 230 0 230 0 2 343 3 342 112 3
112 3 3 112 3 112 113 3 112 3 0 -116 0 -115 100 0 100 0 0 115 0 115 115 0
115 0 0 -230 0 -230 -327 -2 -328 -3 -3 -342 -2 -343 330 0 330 0 0 -115 0
-115 -445 0 -445 0 0 115 0 115 -115 0 -115 0 0 -115 0 -114 -112 -3 -113 -3
-3 -228 -2 -227 115 0 115 0 0 -230 0 -230 115 0 115 0 0 230 0 230 330 0 330
0 0 -115 0 -115 115 0 115 0 0 -115 0 -115 1035 0 1035 0 0 230 0 230 210 0
210 0 0 -115 0 -115 -95 0 -95 0 0 -115 0 -115 325 0 325 0 0 230 0 230 230 0
230 0 0 -230 0 -230 345 0 345 0 0 115 0 115 -115 0 -115 0 0 345 0 345 115 0
115 0 0 -230 0 -230 115 0 115 0 0 -115 0 -115 115 0 115 0 0 -115 0 -115 345
0 345 0 0 115 0 115 -230 0 -230 0 0 115 0 115 115 0 115 0 0 115 0 115 -230
0 -230 0 0 460 0 460 115 0 115 0 0 -115 0 -115 115 0 115 0 0 -115 0 -115
-115 0 -115 0 0 -115 0 -115 115 0 115 0 0 115 0 115 115 0 115 0 0 345 0 345
-230 0 -230 0 0 115 0 115 -575 0 -575 0 0 115 0 115 -115 0 -115 0 0 -115 0
-115 -115 0 -115 0 0 115 0 115 -115 0 -115 0 0 325 0 325 115 0 115 0 0 -95
0 -95 115 0 115 0 0 -115 0 -115 115 0 115 0 0 210 0 210 115 0 115 0 0 230 0
230 115 0 115 0 0 -115 0 -115 115 0 115 0 0 -115 0 -115 -115 0 -115 0 0 -95
0 -95 -115 0 -115 0 0 -230 0 -230 575 0 575 0 0 115 0 115 115 0 115 0 0 325
0 325 -345 0 -345 0 0 115 0 115 -230 0 -230 0 0 115 0 115 115 0 115 0 0 115
0 115 115 0 115 0 0 115 0 115 345 0 345 0 0 230 0 230 -115 0 -115 0 0 -115
0 -115 -230 0 -230 0 0 115 0 115 115 0 115 0 0 115 0 115 115 0 115 0 0 115
0 115 -115 0 -115 0 0 115 0 115 230 0 230 0 0 330 0 330 -115 0 -115 0 0
-115 0 -115 -115 0 -115 0 0 115 0 115 -345 0 -345 0 0 115 0 115 -115 0 -115
0 0 230 0 230 -230 0 -230 0 0 230 0 231 -112 -3 -113 -3 -3 -112 -3 -113
-114 0 -115 0 0 115 0 115 -115 0 -115 0 0 115 0 115 -115 0 -115 0 0 110 0
110 230 0 229 0 3 -112 3 -113 113 -3 112 -3 0 231 0 230 115 0 115 0 0 330 0
330 -115 0 -115 0 0 -330 0 -331 -112 3 -113 3 -3 112 -3 112 -112 3 -112 3
-3 213 -2 212 -115 0 -115 0 0 -100 0 -100 -95 0 -95 0 0 100 0 100 -115 0
-115 0 0 -100 0 -100 115 0 115 0 0 -115 0 -115 95 0 95 0 0 -115 0 -115 -325
0 -325 0 0 -115 0 -115 -115 0 -115 0 0 230 0 230 115 0 115 0 0 115 0 115
-230 0 -229 0 -3 -112 -3 -113 -342 -3 -343 -2 0 215 0 215 -230 0 -230 0 0
-215 0 -215 -115 0 -115 0 0 215 0 215 -115 0 -115 0 0 -100 0 -101 -97 3 -98
3 -3 98 -3 97 -345 0 -345 0 3 -97z m1118 -563 l0 -230 115 0 115 0 0 -110 0
-110 -115 0 -115 0 0 -235 0 -235 115 0 115 0 0 115 0 115 115 0 115 0 0 -225
0 -225 -345 0 -345 0 0 455 0 454 -97 3 -98 3 -3 228 -2 227 215 0 215 0 0
-230z m690 0 l0 -230 -115 0 -115 0 0 230 0 230 115 0 115 0 0 -230z m-1580
-340 l0 -110 -115 0 -115 0 0 110 0 110 115 0 115 0 0 -110z m460 0 l0 -110
-115 0 -115 0 0 110 0 110 115 0 115 0 0 -110z m1810 -5 l0 -115 228 2 227 3
3 113 3 112 229 0 230 0 0 -110 0 -110 -115 0 -115 0 0 -115 0 -115 -115 0
-115 0 0 -115 0 -115 -115 0 -114 0 -3 113 -3 112 -112 3 -113 3 0 -345 0
-346 228 -2 227 -3 3 -112 3 -113 227 -2 227 -3 3 -112 3 -113 94 0 95 0 0
-115 0 -115 -95 0 -95 0 0 115 0 115 -230 0 -230 0 0 115 0 115 -345 0 -345 0
0 -115 0 -114 113 -3 112 -3 3 -112 3 -112 112 -3 112 -3 3 -212 2 -213 115 0
115 0 0 215 0 216 113 -3 112 -3 3 -97 3 -98 114 0 115 0 0 -115 0 -115 -230
0 -230 0 0 -115 0 -115 -115 0 -115 0 0 115 0 115 -115 0 -115 0 0 115 0 115
-115 0 -115 0 0 -230 0 -230 -230 0 -230 0 0 230 0 230 115 0 115 0 0 100 0
100 115 0 115 0 0 115 0 115 -230 0 -230 0 0 -115 0 -115 -115 0 -115 0 0 115
0 115 -115 0 -115 0 0 230 0 230 230 0 230 0 0 -115 0 -115 115 0 115 0 0 115
0 115 115 0 115 0 -2 343 -3 342 -112 3 -113 3 0 -116 0 -115 -115 0 -115 0 0
225 0 224 113 3 112 3 3 113 3 112 229 0 230 0 0 -115z m1110 -225 l0 -110
-95 0 -95 0 0 110 0 110 95 0 95 0 0 -110z m-3378 -232 l3 -113 113 -3 112 -3
0 116 0 115 115 0 115 0 2 -227 3 -228 98 -3 97 -3 0 -109 0 -110 -215 0 -215
0 0 115 0 115 -230 0 -230 0 0 225 0 225 115 0 114 0 3 -112z m3188 -3 l0
-115 95 0 95 0 0 115 0 115 115 0 114 0 3 -112 3 -113 113 -3 112 -3 0 -224 0
-225 -115 0 -115 0 0 115 0 116 -112 -3 -113 -3 -3 -227 -2 -228 -95 0 -95 0
-2 228 -3 227 -112 3 -113 3 0 224 0 225 115 0 115 0 0 -115z m-230 -455 l0
-110 -115 0 -115 0 0 110 0 110 115 0 115 0 0 -110z m-3650 -225 l0 -115 -110
0 -110 0 0 115 0 115 110 0 110 0 0 -115z m690 -115 l0 -230 -115 0 -115 0 0
-115 0 -115 230 0 230 0 2 228 3 227 113 3 112 3 0 -116 0 -115 100 0 100 0 0
-115 0 -115 115 0 115 0 0 -100 0 -100 230 0 230 0 0 -230 0 -230 -230 0 -230
0 0 230 0 230 -215 0 -215 0 0 -115 0 -115 100 0 100 0 0 -345 0 -345 230 0
230 0 0 -115 0 -115 115 0 115 0 0 230 0 230 115 0 115 0 0 -115 0 -115 115 0
115 0 0 115 0 115 230 0 230 0 0 -115 0 -115 230 0 230 0 0 115 0 115 115 0
115 0 0 115 0 115 115 0 115 0 0 -115 0 -115 95 0 95 0 0 345 0 345 230 0 229
0 3 98 3 97 112 3 113 3 2 227 3 227 112 3 112 3 3 112 3 112 113 3 112 3 0
-116 0 -115 115 0 115 0 0 -230 0 -230 115 0 115 0 0 -100 0 -100 -115 0 -115
0 0 100 0 100 -227 -2 -228 -3 -3 -97 -3 -98 116 0 115 0 0 -230 0 -230 -460
0 -460 0 0 -115 0 -115 115 0 115 0 0 -230 0 -230 -115 0 -115 0 0 230 0 230
-115 0 -115 0 0 -115 0 -115 -325 0 -325 0 0 -115 0 -115 -230 0 -230 0 0 115
0 115 -115 0 -115 0 0 -230 0 -230 -115 0 -115 0 0 -115 0 -115 115 0 115 0 0
-230 0 -230 345 0 345 0 0 -115 0 -115 440 0 440 0 0 230 0 229 -112 3 -113 3
-3 113 -3 112 -94 0 -94 0 -3 -112 -3 -113 -227 -3 -228 -2 0 115 0 115 -230
0 -230 0 0 115 0 115 230 0 230 0 0 -115 0 -115 115 0 115 0 0 115 0 115 555
0 555 0 0 -230 0 -230 230 0 230 0 0 115 0 115 -115 0 -115 0 0 230 0 230
-115 0 -115 0 0 230 0 230 345 0 345 0 0 -115 0 -115 115 0 115 0 0 115 0 115
115 0 115 0 0 345 0 345 115 0 115 0 0 -230 0 -230 115 0 115 0 0 -115 0 -115
-230 0 -230 0 0 -345 0 -345 -115 0 -115 0 0 115 0 115 -115 0 -115 0 0 115 0
115 -115 0 -115 0 0 -345 0 -345 230 0 230 0 0 -115 0 -115 -115 0 -115 0 0
-115 0 -115 -115 0 -115 0 0 -230 0 -231 -112 3 -113 3 -3 113 -3 112 -229 0
-230 0 0 -115 0 -115 -115 0 -115 0 0 -440 0 -440 -210 0 -210 0 0 -115 0
-115 -115 0 -115 0 0 115 0 115 -115 0 -115 0 0 -230 0 -230 -230 0 -230 0 0
-345 0 -345 115 0 115 0 0 115 0 115 230 0 230 0 0 230 0 231 113 -3 112 -3 3
-112 3 -113 324 0 325 0 0 230 0 230 -115 0 -115 0 0 -115 0 -115 -115 0 -116
0 3 113 3 112 112 3 112 3 3 112 3 112 228 3 227 2 0 -345 0 -345 -115 0 -115
0 0 -115 0 -115 115 0 115 0 0 -230 0 -230 -115 0 -115 0 0 -115 0 -115 -230
0 -230 0 0 345 0 345 -95 0 -95 0 0 -230 0 -230 -115 0 -115 0 0 115 0 115
-230 0 -230 0 0 -230 0 -230 115 0 115 0 0 -115 0 -115 -115 0 -115 0 0 115 0
115 -115 0 -115 0 0 -115 0 -115 -345 0 -345 0 0 115 0 115 -115 0 -115 0 0
-115 0 -115 -230 0 -230 0 0 115 0 115 115 0 115 0 0 115 0 115 -115 0 -115 0
0 115 0 115 115 0 115 0 0 115 0 115 -115 0 -115 0 0 115 0 115 115 0 115 0 0
345 0 345 115 0 115 0 0 115 0 115 115 0 115 0 0 115 0 115 115 0 115 0 0
-230 0 -230 115 0 115 0 0 115 0 115 115 0 116 0 -3 113 -3 112 -112 3 -113 3
0 115 0 114 228 -2 227 -3 3 -112 3 -113 114 0 115 0 0 210 0 210 -115 0 -115
0 0 115 0 115 -115 0 -114 0 -3 -112 -3 -113 -227 -3 -228 -2 0 -95 0 -95
-115 0 -115 0 0 95 0 95 -115 0 -115 0 0 115 0 115 -230 0 -230 0 0 -115 0
-115 -115 0 -115 0 0 -325 0 -325 -100 0 -100 0 0 230 0 230 -115 0 -115 0 0
-115 0 -115 -115 0 -116 0 3 113 3 112 113 3 112 3 0 94 0 94 -112 3 -113 3
-3 227 -2 227 -113 3 -112 3 -3 343 -2 342 -110 0 -110 0 0 115 0 115 110 0
110 0 0 115 0 115 345 0 345 0 0 115 0 115 -115 0 -115 0 0 115 0 115 -230 0
-230 0 0 -115 0 -115 -110 0 -110 0 0 115 0 115 110 0 110 0 0 230 0 230 -225
0 -224 0 -3 98 -3 97 -112 3 -113 3 0 114 0 115 340 0 340 0 0 115 0 115 -110
0 -110 0 0 115 0 115 225 0 225 0 0 -230z m3840 -115 l0 -115 -115 0 -115 0 0
108 c0 60 3 112 7 115 3 4 55 7 115 7 l108 0 0 -115z m-5212 -447 l3 -98 114
0 115 0 0 100 0 100 110 0 110 0 0 -100 0 -100 115 0 115 0 0 -115 0 -115
-230 0 -230 0 0 -230 0 -230 -110 0 -110 0 0 -115 0 -115 -115 0 -115 0 0 230
0 230 -115 0 -115 0 0 115 0 115 115 0 115 0 0 215 0 216 113 -3 112 -3 3 -97z
m682 -673 l0 -115 -110 0 -110 0 0 115 0 115 110 0 110 0 0 -115z m-1140 -460
l0 -115 -115 0 -115 0 0 115 0 115 115 0 115 0 0 -115z m1140 0 l0 -115 -110
0 -110 0 0 115 0 115 110 0 110 0 0 -115z m-228 -227 l3 -113 228 -3 227 -2 0
-115 0 -115 -230 0 -231 0 3 -112 3 -113 113 -3 112 -3 0 -114 0 -115 -225 0
-225 0 0 460 0 460 110 0 109 0 3 -112z m458 -923 l0 -115 -110 0 -110 0 0
115 0 115 110 0 110 0 0 -115z m-230 -230 l0 -115 -110 0 -110 0 0 115 0 115
110 0 110 0 0 -115z m690 -210 l0 -94 -112 -3 -113 -3 -3 -227 -2 -228 -110 0
-110 0 -2 228 -3 227 -112 3 -113 3 0 94 0 95 340 0 340 0 0 -95z m5910 0 l0
-95 -115 0 -115 0 0 -115 0 -115 -230 0 -230 0 0 115 0 115 230 0 230 0 0 95
0 95 115 0 115 0 0 -95z m-4560 -210 l0 -115 -230 0 -230 0 0 115 0 115 230 0
230 0 0 -115z m3640 -1150 l0 -345 -345 0 -345 0 0 345 0 345 345 0 345 0 0
-345z m-460 -805 l0 -230 -115 0 -115 0 0 230 0 230 115 0 115 0 0 -230z
m-4530 -115 l0 -115 -115 0 -115 0 0 115 0 115 115 0 115 0 0 -115z m5450 0
l0 -115 -115 0 -115 0 0 115 0 115 115 0 115 0 0 -115z"/>
<path d="M3610 6025 l0 -115 115 0 115 0 0 115 0 115 -115 0 -115 0 0 -115z"/>
<path d="M6560 6025 l0 -115 115 0 115 0 0 115 0 115 -115 0 -115 0 0 -115z"/>
<path d="M2490 5580 l0 -100 -115 0 -115 0 0 -115 0 -115 115 0 115 0 0 115 0
115 115 0 115 0 0 100 0 100 -115 0 -115 0 0 -100z"/>
<path d="M6100 5365 l0 -115 115 0 115 0 0 115 0 115 -115 0 -115 0 0 -115z"/>
<path d="M2720 4445 l0 -115 -230 0 -230 0 0 -115 0 -115 115 0 115 0 0 -230
0 -230 -115 0 -115 0 0 -115 0 -115 115 0 115 0 0 115 0 115 115 0 115 0 0
115 0 115 100 0 100 0 0 -345 0 -345 115 0 115 0 0 115 0 115 460 0 460 0 0
-115 0 -115 115 0 115 0 0 115 0 115 -115 0 -115 0 0 230 0 230 -115 0 -115 0
0 230 0 230 -115 0 -115 0 0 -230 0 -230 115 0 115 0 0 -115 0 -115 -230 0
-230 0 0 230 0 230 -330 0 -330 0 0 115 0 115 100 0 100 0 0 115 0 115 -100 0
-100 0 0 -115z"/>
<path d="M5870 3755 l0 -115 115 0 115 0 0 115 0 115 -115 0 -115 0 0 -115z"/>
<path d="M5220 2510 l0 -440 115 0 115 0 0 230 0 230 95 0 95 0 0 210 0 210
-210 0 -210 0 0 -440z"/>
<path d="M4530 2070 l0 -230 -230 0 -230 0 0 115 0 115 -230 0 -230 0 0 -230
0 -230 230 0 230 0 0 -115 0 -115 -230 0 -230 0 0 -115 0 -115 230 0 230 0 0
-115 0 -115 115 0 115 0 0 115 0 115 -115 0 -115 0 0 115 0 115 115 0 115 0 0
115 0 115 115 0 115 0 0 115 0 115 115 0 115 0 0 115 0 115 115 0 115 0 0 115
0 115 -230 0 -230 0 0 -230z"/>
<path d="M5870 1035 l0 -115 115 0 115 0 0 115 0 115 -115 0 -115 0 0 -115z"/>
<path d="M3380 805 l0 -115 115 0 115 0 0 115 0 115 -115 0 -115 0 0 -115z"/>
<path d="M3840 575 l0 -115 115 0 115 0 0 115 0 115 -115 0 -115 0 0 -115z"/>
<path d="M4300 575 l0 -115 115 0 115 0 0 115 0 115 -115 0 -115 0 0 -115z"/>
<path d="M6790 1495 l0 -115 115 0 115 0 0 115 0 115 -115 0 -115 0 0 -115z"/>
<path d="M4070 8300 l0 -100 115 0 115 0 0 100 0 100 -115 0 -115 0 0 -100z"/>
<path d="M6792 7613 l3 -788 803 -3 802 -2 0 790 0 790 -805 0 -805 0 2 -787z
m1378 17 l0 -570 -575 0 -575 0 0 570 0 570 575 0 575 0 0 -570z"/>
<path d="M7252 7628 l3 -343 343 -3 342 -2 0 345 0 345 -345 0 -345 0 2 -342z"/>
<path d="M7257 6593 c-4 -3 -7 -55 -7 -115 l0 -108 115 0 115 0 0 -115 0 -115
230 0 230 0 0 115 0 115 -230 0 -230 0 0 115 0 115 -108 0 c-60 0 -112 -3
-115 -7z"/>
<path d="M7940 3755 l0 -115 115 0 115 0 0 115 0 115 -115 0 -115 0 0 -115z"/>
<path d="M0 3065 l0 -116 98 3 97 3 3 113 3 112 -101 0 -100 0 0 -115z"/>
<path d="M890 2415 l0 -115 -115 0 -115 0 0 -115 0 -115 115 0 115 0 0 115 0
115 115 0 116 0 -3 113 -3 112 -112 3 -113 3 0 -116z"/>
<path d="M1347 2064 c-4 -4 -7 -56 -7 -116 l0 -108 120 0 121 0 -3 113 -3 112
-111 3 c-60 1 -113 -1 -117 -4z"/>
<path d="M0 805 l0 -805 790 0 790 0 -2 802 -3 803 -787 3 -788 2 0 -805z
m1340 0 l0 -575 -570 0 -570 0 0 575 0 575 570 0 570 0 0 -575z"/>
<path d="M430 805 l0 -345 345 0 345 0 -2 343 -3 342 -342 3 -343 2 0 -345z"/>
</g>
</svg>
