<svg width="32" height="32" viewBox="0 0 32 32" fill="none" xmlns="http://www.w3.org/2000/svg">
<path d="M0 16C0 7.16344 7.16344 0 16 0C24.8366 0 32 7.16344 32 16C32 24.8366 24.8366 32 16 32C7.16344 32 0 24.8366 0 16Z" fill="#EF761F"/>
<path d="M22.364 11.0503C22.7545 10.6597 22.7545 10.0266 22.364 9.63606C21.9734 9.24553 21.3403 9.24553 20.9497 9.63606L16 14.5858L11.0503 9.63606C10.6597 9.24553 10.0266 9.24553 9.63604 9.63606C9.24551 10.0266 9.24551 10.6597 9.63604 11.0503L14.5858 16L9.63604 20.9498C9.24551 21.3403 9.24551 21.9735 9.63604 22.364C10.0266 22.7545 10.6597 22.7545 11.0503 22.364L16 17.4142L20.9497 22.364C21.3403 22.7545 21.9734 22.7545 22.364 22.364C22.7545 21.9735 22.7545 21.3403 22.364 20.9498L17.4142 16L22.364 11.0503Z" fill="white"/>
</svg>
