<svg width="25" height="25" viewBox="0 0 25 25" fill="none" xmlns="http://www.w3.org/2000/svg">
<path d="M12.4761 3.31264e-07C6.35748 -0.000785599 1.14167 4.43661 0.162043 10.4763C-0.817585 16.5159 2.72823 22.3744 8.53336 24.3077C9.15859 24.4202 9.38242 24.0363 9.38242 23.7062C9.38242 23.4098 9.37242 22.6245 9.36866 21.5804C5.89864 22.3307 5.16588 19.9073 5.16588 19.9073C4.93744 19.1532 4.44633 18.5059 3.78162 18.0829C2.65621 17.3088 3.8679 17.3263 3.8679 17.3263C4.66904 17.4362 5.37414 17.9109 5.77735 18.6118C6.11864 19.2324 6.69363 19.6909 7.37457 19.8856C8.0555 20.0802 8.78597 19.9949 9.40368 19.6484C9.46173 19.0157 9.74322 18.4244 10.1977 17.9803C7.4292 17.6665 4.51814 16.5961 4.51814 11.8156C4.50277 10.5791 4.96193 9.38381 5.80111 8.4756C5.42141 7.39935 5.46612 6.21884 5.92615 5.1744C5.92615 5.1744 6.97279 4.83802 9.35491 6.45111C11.398 5.89092 13.5541 5.89092 15.5972 6.45111C17.9806 4.83677 19.026 5.1744 19.026 5.1744C19.4881 6.21835 19.5329 7.39968 19.151 8.4756C19.9933 9.38372 20.452 10.5822 20.4315 11.8206C20.4315 16.6136 17.5179 17.6665 14.7394 17.9753C15.3388 18.5881 15.6461 19.4288 15.5834 20.2837C15.5834 21.9518 15.5684 23.2973 15.5684 23.7062C15.5684 24.0401 15.791 24.4277 16.4275 24.3052C22.2302 22.3686 25.7722 16.5098 24.7906 10.4717C23.8089 4.43369 18.5934 -0.00139948 12.4761 3.31264e-07Z" fill="#9381FF"/>
</svg>
