<svg width="24" height="23" viewBox="0 0 24 23" fill="none" xmlns="http://www.w3.org/2000/svg">
<path d="M12.217 22.8037C9.14089 22.8037 8.77825 22.7875 7.57781 22.735C6.64168 22.7042 5.71767 22.5139 4.84556 22.1723C3.33665 21.5851 2.1435 20.3914 1.55686 18.8823C1.22837 18.007 1.0512 17.0823 1.03292 16.1476C0.962891 14.9496 0.962891 14.557 0.962891 11.5046C0.962891 8.41973 0.979147 8.0596 1.03292 6.86541C1.0516 5.93197 1.22876 5.00849 1.55686 4.13441C2.14286 2.62327 3.33795 1.42864 4.84931 0.843205C5.72294 0.513337 6.64665 0.3357 7.58031 0.318013C8.7745 0.250488 9.16714 0.250488 12.217 0.250488C15.3181 0.250488 15.6745 0.266744 16.8562 0.318013C17.7923 0.335853 18.7184 0.513472 19.5947 0.843205C21.1056 1.4293 22.3005 2.6237 22.8872 4.13441C23.2212 5.02123 23.3993 5.95914 23.4136 6.90668C23.4836 8.10461 23.4836 8.49601 23.4836 11.5471C23.4836 14.5982 23.4661 14.9984 23.4136 16.1826C23.395 17.1182 23.2174 18.0438 22.8884 18.9198C22.3003 20.43 21.1053 21.624 19.5947 22.211C18.7197 22.5389 17.7954 22.716 16.8612 22.735C15.667 22.8037 15.2756 22.8037 12.217 22.8037ZM12.1745 2.22996C9.11588 2.22996 8.79826 2.24497 7.60407 2.29874C6.89129 2.30818 6.1854 2.43972 5.51706 2.68763C4.53014 3.06528 3.74919 3.84304 3.36752 4.82841C3.1177 5.50403 2.98614 6.21765 2.97863 6.93794C2.91235 8.14963 2.91235 8.46725 2.91235 11.5046C2.91235 14.5057 2.92361 14.8696 2.97863 16.0738C2.98982 16.7868 3.1213 17.4928 3.36752 18.162C3.74976 19.1468 4.53056 19.9239 5.51706 20.3016C6.18495 20.5511 6.89113 20.6827 7.60407 20.6905C8.81452 20.7605 9.13338 20.7605 12.1745 20.7605C15.2419 20.7605 15.5595 20.7455 16.7437 20.6905C17.4569 20.6818 18.1634 20.5502 18.8319 20.3016C19.8129 19.9207 20.5887 19.1453 20.9702 18.1645C21.2196 17.4884 21.3511 16.7744 21.3591 16.0538H21.3729C21.4266 14.8583 21.4266 14.5395 21.4266 11.4846C21.4266 8.42973 21.4129 8.10837 21.3591 6.91418C21.3479 6.20198 21.2164 5.4968 20.9702 4.82841C20.5896 3.84627 19.8136 3.06939 18.8319 2.68763C18.1635 2.43847 17.457 2.30689 16.7437 2.29874C15.5345 2.22996 15.2181 2.22996 12.1745 2.22996ZM12.217 17.2805C9.87864 17.282 7.76966 15.8746 6.87363 13.7147C5.97761 11.5549 6.47104 9.06788 8.1238 7.41369C9.77656 5.7595 12.2631 5.26391 14.4238 6.15807C16.5844 7.05222 17.9936 9.15999 17.9941 11.4984C17.9907 14.6884 15.407 17.2743 12.217 17.2805ZM12.217 7.74448C10.1452 7.74448 8.46564 9.42403 8.46564 11.4959C8.46564 13.5677 10.1452 15.2472 12.217 15.2472C14.2888 15.2472 15.9684 13.5677 15.9684 11.4959C15.9636 9.42603 14.2868 7.7493 12.217 7.74448ZM18.2192 6.85291C17.4757 6.85015 16.8748 6.24592 16.8762 5.50242C16.8776 4.75892 17.4807 4.15693 18.2242 4.15693C18.9677 4.15693 19.5708 4.75891 19.5722 5.50241C19.5725 5.86112 19.43 6.2052 19.1761 6.45861C18.9223 6.71202 18.5779 6.8539 18.2192 6.85291Z" fill="#9381FF"/>
</svg>
