<svg width="24" height="24" viewBox="0 0 24 24" fill="none" xmlns="http://www.w3.org/2000/svg">
<path d="M18.6981 12C18.6981 13.7763 17.9924 15.4799 16.7364 16.736C15.4803 17.992 13.7767 18.6977 12.0004 18.6977C10.2241 18.6977 8.5205 17.992 7.26444 16.736C6.00838 15.4799 5.30273 13.7763 5.30273 12C5.30273 10.2237 6.00838 8.5201 7.26444 7.26404C8.5205 6.00798 10.2241 5.30234 12.0004 5.30234C13.7767 5.30234 15.4803 6.00798 16.7364 7.26404C17.9924 8.5201 18.6981 10.2237 18.6981 12Z" fill="#212121"/>
<path fill-rule="evenodd" clip-rule="evenodd" d="M12 0C12.222 0 12.435 0.0882058 12.592 0.245213C12.749 0.40222 12.8372 0.615168 12.8372 0.837209V1.95349C12.8372 2.17553 12.749 2.38848 12.592 2.54549C12.435 2.70249 12.222 2.7907 12 2.7907C11.778 2.7907 11.565 2.70249 11.408 2.54549C11.251 2.38848 11.1628 2.17553 11.1628 1.95349V0.837209C11.1628 0.615168 11.251 0.40222 11.408 0.245213C11.565 0.0882058 11.778 0 12 0ZM3.51516 3.51516C3.67214 3.35838 3.88493 3.27032 4.10679 3.27032C4.32865 3.27032 4.54144 3.35838 4.69842 3.51516L5.13712 3.95274C5.2897 4.11057 5.37418 4.32201 5.37238 4.54153C5.37058 4.76104 5.28263 4.97107 5.12747 5.12637C4.97232 5.28167 4.76238 5.36982 4.54287 5.37183C4.32335 5.37384 4.11183 5.28955 3.95386 5.13712L3.51516 4.69842C3.35838 4.54144 3.27032 4.32865 3.27032 4.10679C3.27032 3.88493 3.35838 3.67214 3.51516 3.51516ZM20.4848 3.51516C20.6416 3.67214 20.7297 3.88493 20.7297 4.10679C20.7297 4.32865 20.6416 4.54144 20.4848 4.69842L20.0461 5.13712C19.8874 5.285 19.6775 5.36551 19.4606 5.36168C19.2437 5.35786 19.0368 5.26999 18.8834 5.1166C18.73 4.96321 18.6421 4.75627 18.6383 4.53937C18.6345 4.32248 18.715 4.11257 18.8629 3.95386L19.3016 3.51516C19.4586 3.35838 19.6713 3.27032 19.8932 3.27032C20.1151 3.27032 20.3279 3.35838 20.4848 3.51516ZM0 12C0 11.778 0.0882058 11.565 0.245213 11.408C0.40222 11.251 0.615168 11.1628 0.837209 11.1628H1.95349C2.17553 11.1628 2.38848 11.251 2.54549 11.408C2.70249 11.565 2.7907 11.778 2.7907 12C2.7907 12.222 2.70249 12.435 2.54549 12.592C2.38848 12.749 2.17553 12.8372 1.95349 12.8372H0.837209C0.615168 12.8372 0.40222 12.749 0.245213 12.592C0.0882058 12.435 0 12.222 0 12ZM21.2093 12C21.2093 11.778 21.2975 11.565 21.4545 11.408C21.6115 11.251 21.8245 11.1628 22.0465 11.1628H23.1628C23.3848 11.1628 23.5978 11.251 23.7548 11.408C23.9118 11.565 24 11.778 24 12C24 12.222 23.9118 12.435 23.7548 12.592C23.5978 12.749 23.3848 12.8372 23.1628 12.8372H22.0465C21.8245 12.8372 21.6115 12.749 21.4545 12.592C21.2975 12.435 21.2093 12.222 21.2093 12ZM18.8629 18.8629C19.0199 18.7061 19.2327 18.618 19.4545 18.618C19.6764 18.618 19.8892 18.7061 20.0461 18.8629L20.4848 19.3016C20.5671 19.3782 20.6331 19.4707 20.6788 19.5734C20.7246 19.6761 20.7492 19.7869 20.7512 19.8993C20.7532 20.0117 20.7325 20.1234 20.6904 20.2276C20.6483 20.3319 20.5856 20.4266 20.5061 20.5061C20.4266 20.5856 20.3319 20.6483 20.2276 20.6904C20.1234 20.7325 20.0117 20.7532 19.8993 20.7512C19.7869 20.7492 19.6761 20.7246 19.5734 20.6788C19.4707 20.6331 19.3782 20.5671 19.3016 20.4848L18.8629 20.0461C18.7061 19.8892 18.618 19.6764 18.618 19.4545C18.618 19.2327 18.7061 19.0199 18.8629 18.8629ZM5.13712 18.8629C5.2939 19.0199 5.38196 19.2327 5.38196 19.4545C5.38196 19.6764 5.2939 19.8892 5.13712 20.0461L4.69842 20.4848C4.62177 20.5671 4.52934 20.6331 4.42665 20.6788C4.32395 20.7246 4.21309 20.7492 4.10068 20.7512C3.98826 20.7532 3.8766 20.7325 3.77236 20.6904C3.66811 20.6483 3.57341 20.5856 3.49391 20.5061C3.41441 20.4266 3.35174 20.3319 3.30963 20.2276C3.26752 20.1234 3.24684 20.0117 3.24883 19.8993C3.25081 19.7869 3.27542 19.6761 3.32117 19.5734C3.36693 19.4707 3.43291 19.3782 3.51516 19.3016L3.95274 18.8629C4.03049 18.7851 4.12281 18.7234 4.22442 18.6813C4.32603 18.6392 4.43494 18.6175 4.54493 18.6175C4.65492 18.6175 4.76383 18.6392 4.86544 18.6813C4.96705 18.7234 5.05937 18.7851 5.13712 18.8629ZM12 21.2093C12.222 21.2093 12.435 21.2975 12.592 21.4545C12.749 21.6115 12.8372 21.8245 12.8372 22.0465V23.1628C12.8372 23.3848 12.749 23.5978 12.592 23.7548C12.435 23.9118 12.222 24 12 24C11.778 24 11.565 23.9118 11.408 23.7548C11.251 23.5978 11.1628 23.3848 11.1628 23.1628V22.0465C11.1628 21.8245 11.251 21.6115 11.408 21.4545C11.565 21.2975 11.778 21.2093 12 21.2093Z" fill="#212121"/>
</svg>
