<svg width="24" height="24" viewBox="0 0 24 24" fill="none" xmlns="http://www.w3.org/2000/svg">
<g clip-path="url(#clip0_1126_621)">
<path d="M6.00214 20.7922C4.56454 19.9622 3.37114 18.9092 2.42194 17.6333C1.47274 16.3574 0.800289 14.9821 0.404582 13.5075C0.00927448 12.0322 -0.0963474 10.5047 0.0877102 8.9251C0.271768 7.34551 0.779142 5.83711 1.60983 4.39991C1.92983 3.84565 2.31679 3.29541 2.77072 2.74919C3.22464 2.20298 3.70687 1.70774 4.21739 1.26349C4.42399 1.10564 4.6534 1.01869 4.90561 1.00265C5.15782 0.986607 5.39617 1.04339 5.62064 1.17299C5.77653 1.26299 5.90615 1.37847 6.00951 1.51944C6.11288 1.66041 6.17306 1.81616 6.19006 1.98672C6.50197 3.80647 7.16731 5.44368 8.18606 6.89835C9.20482 8.35301 10.4768 9.5202 12.0021 10.3999C13.5263 11.2799 15.1734 11.7976 16.9432 11.9529C18.7131 12.1082 20.4634 11.8662 22.1942 11.2267C22.3508 11.1555 22.5158 11.1297 22.6892 11.1494C22.8625 11.1692 23.0274 11.2237 23.1836 11.313C23.4088 11.443 23.5775 11.6212 23.6897 11.8477C23.8019 12.0741 23.841 12.316 23.8069 12.5735C23.6774 13.2377 23.4896 13.903 23.2436 14.5692C22.9975 15.2354 22.7144 15.8457 22.3944 16.3999C21.5644 17.8375 20.5118 19.0311 19.2366 19.9807C17.9613 20.9303 16.5857 21.6026 15.1097 21.9975C13.6344 22.3928 12.1069 22.4984 10.5273 22.3143C8.94774 22.1303 7.43934 21.6229 6.00214 20.7922Z" fill="#002A52"/>
</g>
<defs>
<clipPath id="clip0_1126_621">
<rect width="24" height="24" fill="white"/>
</clipPath>
</defs>
</svg>
