<svg width="19" height="19" viewBox="0 0 19 19" fill="none" xmlns="http://www.w3.org/2000/svg">
<path d="M10.5195 15.749C10.2031 16.083 9.80762 16.25 9.33301 16.25C8.8584 16.25 8.4541 16.083 8.12012 15.749C7.80371 15.4326 7.64551 15.0371 7.64551 14.5625H11.0205C11.0205 15.0371 10.8535 15.4326 10.5195 15.749ZM15.002 12.2949C15.1602 12.4707 15.2393 12.6641 15.2393 12.875C15.2393 13.1035 15.1602 13.3057 15.002 13.4814C14.8438 13.6396 14.6416 13.7188 14.3955 13.7188H4.27051C4.1123 13.7188 3.96289 13.6836 3.82227 13.6133C3.69922 13.5254 3.60254 13.4199 3.53223 13.2969C3.46191 13.1562 3.42676 13.0156 3.42676 12.875C3.42676 12.6641 3.50586 12.4707 3.66406 12.2949C3.68164 12.2773 3.70801 12.2422 3.74316 12.1895C4.00684 11.9258 4.20898 11.6885 4.34961 11.4775C4.50781 11.2666 4.6748 10.8711 4.85059 10.291C5.02637 9.69336 5.11426 9.00781 5.11426 8.23438C5.11426 7.56641 5.25488 6.94238 5.53613 6.3623C5.83496 5.78223 6.23926 5.29883 6.74902 4.91211C7.25879 4.52539 7.83887 4.27051 8.48926 4.14746V3.59375C8.48926 3.36523 8.56836 3.17188 8.72656 3.01367C8.90234 2.83789 9.10449 2.75 9.33301 2.75C9.56152 2.75 9.75488 2.83789 9.91309 3.01367C10.0889 3.17188 10.1768 3.36523 10.1768 3.59375V4.14746C11.1611 4.34082 11.9697 4.81543 12.6025 5.57129C13.2354 6.32715 13.5518 7.21484 13.5518 8.23438C13.5518 9.00781 13.6396 9.69336 13.8154 10.291C13.9912 10.8711 14.1494 11.2666 14.29 11.4775C14.4482 11.6885 14.6592 11.9258 14.9229 12.1895C14.958 12.2422 14.9844 12.2773 15.002 12.2949Z" fill="currentColor"/>
</svg>
