<svg width="20" height="20" viewBox="0 0 20 20" fill="none" xmlns="http://www.w3.org/2000/svg">
<path d="M10.8333 3.33333C10.8333 2.8731 10.4602 2.5 10 2.5C9.53976 2.5 9.16667 2.8731 9.16667 3.33333L9.16667 9.16667H3.33333C2.8731 9.16667 2.5 9.53976 2.5 10C2.5 10.4602 2.8731 10.8333 3.33333 10.8333H9.16667L9.16667 16.6667C9.16667 17.1269 9.53976 17.5 10 17.5C10.4602 17.5 10.8333 17.1269 10.8333 16.6667V10.8333H16.6667C17.1269 10.8333 17.5 10.4602 17.5 10C17.5 9.53976 17.1269 9.16667 16.6667 9.16667H10.8333V3.33333Z" fill="white"/>
</svg>
