<svg width="23" height="23" viewBox="0 0 23 23" fill="none" xmlns="http://www.w3.org/2000/svg">
<path d="M22.9985 11.5046C22.9985 14.4894 21.8128 17.3519 19.7022 19.4625C17.5917 21.573 14.7291 22.7587 11.7444 22.7587C8.75958 22.7587 5.89705 21.573 3.78649 19.4625C1.67593 17.3519 0.490234 14.4894 0.490234 11.5046C0.490234 8.51983 1.67593 5.6573 3.78649 3.54674C5.89705 1.43619 8.75958 0.250488 11.7444 0.250488C14.7291 0.250488 17.5917 1.43619 19.7022 3.54674C21.8128 5.6573 22.9985 8.51983 22.9985 11.5046V11.5046ZM12.1481 8.55884C11.0536 9.01464 8.86471 9.95717 5.58413 11.3864C5.05237 11.5975 4.77243 11.8057 4.74711 12.0082C4.7049 12.3501 5.13397 12.4851 5.71777 12.6694L5.96396 12.7468C6.53792 12.9339 7.31164 13.1519 7.71257 13.1604C8.07833 13.1688 8.48488 13.0197 8.93364 12.7102C11.999 10.6409 13.5816 9.59563 13.6801 9.57312C13.7504 9.55624 13.8489 9.53654 13.9136 9.59563C13.9797 9.65331 13.9727 9.76444 13.9656 9.79398C13.9234 9.97546 12.2395 11.5398 11.3687 12.3501C11.0972 12.6033 10.9045 12.782 10.8651 12.8227C10.7784 12.9114 10.6902 12.9986 10.6007 13.0844C10.0661 13.5993 9.66656 13.9847 10.6218 14.615C11.0818 14.9188 11.4503 15.1678 11.8175 15.4182C12.217 15.6911 12.6165 15.9626 13.1342 16.3031C13.2651 16.3875 13.3917 16.4789 13.5141 16.5661C13.9797 16.8981 14.4003 17.1964 14.9166 17.1486C15.2177 17.1204 15.5286 16.8391 15.6861 15.995C16.0589 14.0016 16.7918 9.68426 16.9606 7.9047C16.9709 7.75676 16.9648 7.60815 16.9424 7.46157C16.9291 7.34329 16.8719 7.23432 16.782 7.1563C16.654 7.06794 16.5014 7.02216 16.3459 7.02547C15.9239 7.0325 15.2725 7.25899 12.1481 8.55884V8.55884Z" fill="#9381FF"/>
</svg>
