<svg width="209" height="209" viewBox="0 0 209 209" fill="none" xmlns="http://www.w3.org/2000/svg">
<path d="M87.3629 193.347C89.1187 193.678 90.4062 194.442 91.2253 195.641C92.0443 196.84 92.2677 198.429 91.8954 200.407L90.4122 208.289L88.9577 208.015L90.4298 200.193C90.7356 198.568 90.5943 197.3 90.006 196.389C89.4177 195.477 88.4553 194.896 87.1187 194.645C85.7691 194.391 84.6546 194.581 83.7754 195.216C82.8961 195.851 82.3036 196.981 81.9978 198.606L80.5257 206.429L79.1105 206.162L80.5937 198.281C80.9661 196.302 81.7517 194.903 82.9505 194.084C84.1362 193.263 85.607 193.017 87.3629 193.347Z" fill="white"/>
<path d="M70.4012 192.369L69.7435 194.046L58.5037 198.695L56.9427 198.022L65.1835 194.519L66.3112 194.025L70.4012 192.369ZM72.9546 189.681L67.4108 202.536L66.0518 201.95L71.5956 189.094L72.9546 189.681ZM63.7169 185.697L66.5071 194.48L65.1612 195.075L62.1008 185L63.7169 185.697Z" fill="white"/>
<path d="M55.4411 181.06L47.2739 192.431L43.0179 189.374C42.0541 188.682 41.3384 187.93 40.8709 187.118C40.3956 186.317 40.1839 185.492 40.2357 184.643C40.269 183.796 40.5812 182.962 41.1723 182.139C41.7479 181.337 42.4352 180.78 43.2343 180.468C44.0147 180.158 44.8643 180.096 45.7829 180.279C46.6938 180.474 47.6312 180.917 48.595 181.61L52.1849 184.188L51.2522 184.355L54.239 180.197L55.4411 181.06ZM47.6764 175.483L47.6368 181.709L46.3373 180.776L46.3606 174.538L47.6764 175.483ZM51.3222 184.258L51.4499 185.211L47.8924 182.656C46.7553 181.84 45.7155 181.47 44.7729 181.548C43.8195 181.619 43.02 182.103 42.3744 183.002C41.721 183.912 41.5132 184.83 41.751 185.756C41.978 186.674 42.66 187.541 43.7971 188.358L47.3546 190.913L46.4102 191.097L51.3222 184.258Z" fill="white"/>
<path d="M41.6765 170.557L26.9861 175.156L26.0101 174.07L32.1437 159.951L33.1866 161.112L27.3449 174.269L26.9438 173.823L40.647 169.412L41.6765 170.557ZM37.2104 171.183L36.0238 171.658L30.5822 165.604L31.1805 164.475L37.2104 171.183Z" fill="white"/>
<path d="M27.9469 153.584L16.0823 161.016L15.2967 159.762L27.1612 152.33L27.9469 153.584Z" fill="white"/>
<path d="M22.1094 143.543L9.08859 148.687L8.64036 147.552L16.4007 134.1L16.6359 134.696L5.32633 139.163L4.78991 137.805L17.8107 132.662L18.259 133.796L10.4913 147.23L10.2561 146.635L21.5657 142.167L22.1094 143.543Z" fill="white"/>
<path d="M7.45876 123.041L6.31567 115.73L7.56055 115.535L8.70363 122.847L7.45876 123.041ZM13.8165 121.885L12.5159 113.566L13.7805 113.369L15.3098 123.15L1.47779 125.312L-0.00512695 115.828L1.25951 115.63L2.51381 123.652L13.8165 121.885Z" fill="white"/>
<path d="M15.049 88.4652C14.7304 90.2232 13.9744 91.5158 12.7811 92.3429C11.5878 93.17 10.0007 93.404 8.0196 93.045L0.128166 91.6147L0.392109 90.1584L8.2245 91.578C9.85133 91.8729 11.1184 91.7231 12.0256 91.1287C12.9328 90.5343 13.5077 89.568 13.7502 88.2298C13.9951 86.8785 13.7971 85.7653 13.1562 84.8903C12.5153 84.0153 11.3815 83.4304 9.75466 83.1355L1.92226 81.716L2.17907 80.299L10.0705 81.7293C12.0516 82.0884 13.4556 82.8646 14.2828 84.0579C15.1123 85.2381 15.3677 86.7072 15.049 88.4652Z" fill="white"/>
<path d="M15.9133 71.4973L14.2323 70.8509L9.50769 59.6426L10.1704 58.077L13.7287 66.2941L14.2301 67.4185L15.9133 71.4973ZM18.619 74.0326L5.72651 68.5752L6.30343 67.2123L19.1959 72.6697L18.619 74.0326ZM22.5405 64.7684L13.7767 67.6175L13.1719 66.2756L23.2266 63.1476L22.5405 64.7684Z" fill="white"/>
<path d="M27.1215 56.4618L15.6961 48.3711L18.7243 44.0947C19.4101 43.1263 20.1574 42.4056 20.9661 41.9326C21.7639 41.452 22.5876 41.2347 23.4372 41.2808C24.2836 41.3084 25.1203 41.615 25.9473 42.2006C26.7525 42.7708 27.3141 43.4544 27.632 44.2513C27.9467 45.0297 28.0152 45.8788 27.8377 46.7986C27.6492 47.7108 27.2121 48.6511 26.5263 49.6195L23.9719 53.2267L23.7984 52.2951L27.9768 55.254L27.1215 56.4618ZM32.6463 48.6599L26.4201 48.6621L27.3447 47.3563L33.5825 47.3378L32.6463 48.6599ZM23.8963 52.3644L22.9436 52.4985L25.4749 48.924C26.2839 47.7815 26.6463 46.7392 26.5618 45.7971C26.4851 44.8442 25.9951 44.048 25.092 43.4084C24.1779 42.7612 23.2587 42.5595 22.3344 42.8036C21.4178 43.0367 20.5549 43.7245 19.7458 44.8671L17.2146 48.4416L17.0247 47.4984L23.8963 52.3644Z" fill="white"/>
<path d="M37.5324 42.627L32.8348 27.9678L33.914 26.9845L48.0736 33.0232L46.9204 34.0739L33.7244 28.3206L34.168 27.9165L38.6708 41.5898L37.5324 42.627ZM36.8765 38.1652L36.3936 36.9818L42.4107 31.4997L43.5442 32.0904L36.8765 38.1652Z" fill="white"/>
<path d="M54.4125 28.7835L46.9012 16.969L48.1502 16.175L55.6614 27.9894L54.4125 28.7835Z" fill="white"/>
<path d="M64.4139 22.8791L59.1829 9.89311L60.3145 9.43727L73.8184 17.1072L73.2247 17.3463L68.6812 6.06703L70.0355 5.52151L75.2665 18.5075L74.1348 18.9634L60.6496 11.286L61.2432 11.0469L65.7867 22.3262L64.4139 22.8791Z" fill="white"/>
<path d="M84.8175 8.09081L92.1208 6.89869L92.3238 8.14224L85.0205 9.33435L84.8175 8.09081ZM86.0161 14.4407L94.3261 13.0842L94.5323 14.3475L84.7616 15.9424L82.5063 2.12522L91.9809 0.578692L92.1871 1.84197L84.1731 3.15008L86.0161 14.4407Z" fill="white"/>
<path d="M119.443 15.449C117.683 15.1421 116.386 14.3949 115.551 13.2071C114.716 12.0194 114.471 10.4338 114.817 8.45041L116.194 0.549561L117.652 0.803726L116.285 8.64547C116.001 10.2742 116.159 11.5402 116.76 12.4434C117.36 13.3466 118.33 13.915 119.67 14.1486C121.023 14.3844 122.135 14.179 123.006 13.5322C123.876 12.8855 124.454 11.7477 124.737 10.1189L126.104 2.2772L127.523 2.52449L126.146 10.4253C125.8 12.4088 125.033 13.818 123.846 14.6531C122.671 15.4905 121.204 15.7558 119.443 15.449Z" fill="white"/>
<path d="M136.417 16.1994L137.052 14.5141L148.228 9.71446L149.798 10.3666L141.605 13.98L140.484 14.4889L136.417 16.1994ZM133.9 18.9221L139.271 5.9933L140.637 6.56107L135.267 19.4899L133.9 18.9221ZM143.19 22.7814L140.282 14.0368L141.62 13.4231L144.815 23.4566L143.19 22.7814Z" fill="white"/>
<path d="M151.527 27.3065L159.541 15.827L163.838 18.8265C164.811 19.5058 165.537 20.2482 166.015 21.0537C166.501 21.8483 166.724 22.6705 166.683 23.5204C166.661 24.3669 166.36 25.2057 165.78 26.0365C165.216 26.8456 164.536 27.4117 163.741 27.7349C162.965 28.0549 162.116 28.1292 161.195 27.9577C160.282 27.7754 159.338 27.3446 158.365 26.6653L154.741 24.1352L155.672 23.9554L152.741 28.1536L151.527 27.3065ZM159.366 32.7788L159.322 26.5527L160.634 27.4686L160.694 33.7061L159.366 32.7788ZM155.603 24.0538L155.462 23.1021L159.054 25.6093C160.202 26.4107 161.247 26.766 162.188 26.6752C163.14 26.5921 163.933 26.0968 164.567 25.1894C165.208 24.271 165.403 23.3505 165.153 22.4278C164.914 21.5128 164.22 20.6545 163.072 19.8531L159.481 17.3459L160.423 17.1498L155.603 24.0538Z" fill="white"/>
<path d="M165.432 37.6244L180.059 32.8285L181.049 33.9011L175.106 48.1009L174.048 46.9548L179.712 33.7205L180.119 34.1613L166.476 38.7558L165.432 37.6244ZM169.889 36.9385L171.069 36.4476L176.591 42.4279L176.008 43.5653L169.889 36.9385Z" fill="white"/>
<path d="M179.388 54.4111L191.152 46.8207L191.954 48.0643L180.19 55.6547L179.388 54.4111Z" fill="white"/>
<path d="M185.359 64.3727L198.31 59.0547L198.773 60.1833L191.194 73.7383L190.951 73.1463L202.2 68.5272L202.754 69.8778L189.804 75.1958L189.34 74.0672L196.927 60.5307L197.17 61.1227L185.922 65.7418L185.359 64.3727Z" fill="white"/>
<path d="M200.284 84.6767L201.525 91.9719L200.283 92.1832L199.042 84.888L200.284 84.6767ZM193.942 85.9179L195.355 94.2186L194.093 94.4333L192.432 84.6735L206.234 82.3255L207.844 91.7895L206.582 92.0042L205.22 83.9992L193.942 85.9179Z" fill="white"/>
<path d="M193.159 119.351C193.454 117.589 194.192 116.287 195.374 115.444C196.556 114.601 198.14 114.345 200.126 114.678L208.036 116.002L207.791 117.462L199.941 116.147C198.31 115.874 197.045 116.041 196.146 116.648C195.247 117.254 194.685 118.228 194.46 119.569C194.234 120.924 194.447 122.034 195.099 122.901C195.752 123.767 196.893 124.337 198.524 124.61L206.375 125.924L206.137 127.344L198.227 126.02C196.241 125.687 194.827 124.93 193.984 123.748C193.139 122.579 192.864 121.114 193.159 119.351Z" fill="white"/>
<path d="M192.522 136.329L194.212 136.953L199.086 148.097L198.445 149.671L194.776 141.503L194.26 140.385L192.522 136.329ZM189.783 133.831L202.747 139.114L202.189 140.485L189.224 135.201L189.783 133.831ZM185.986 143.146L194.711 140.18L195.333 141.514L185.321 144.776L185.986 143.146Z" fill="white"/>
<path d="M181.517 151.514L193.05 159.451L190.079 163.767C189.406 164.745 188.669 165.475 187.866 165.959C187.075 166.451 186.254 166.679 185.404 166.644C184.558 166.628 183.717 166.333 182.882 165.758C182.069 165.199 181.499 164.523 181.17 163.73C180.845 162.956 180.765 162.108 180.93 161.186C181.106 160.271 181.531 159.325 182.204 158.348L184.709 154.707L184.895 155.636L180.678 152.733L181.517 151.514ZM176.097 159.389L182.323 159.304L181.416 160.622L175.179 160.724L176.097 159.389ZM184.797 155.568L185.747 155.421L183.264 159.029C182.471 160.182 182.122 161.229 182.219 162.17C182.309 163.122 182.81 163.912 183.721 164.539C184.644 165.174 185.566 165.363 186.487 165.107C187.4 164.861 188.254 164.162 189.047 163.009L191.53 159.401L191.733 160.341L184.797 155.568Z" fill="white"/>
<path d="M171.292 165.487L176.186 180.082L175.12 181.08L160.881 175.232L162.02 174.166L175.292 179.741L174.854 180.151L170.168 166.54L171.292 165.487ZM172.008 169.94L172.507 171.117L166.564 176.679L165.423 176.104L172.008 169.94Z" fill="white"/>
<path d="M154.6 179.556L162.269 191.269L161.031 192.079L153.361 180.367L154.6 179.556Z" fill="white"/>
<path d="M144.678 185.594L150.083 198.509L148.958 198.98L135.352 191.492L135.942 191.245L140.637 202.462L139.29 203.026L133.885 190.111L135.011 189.64L148.598 197.136L148.007 197.383L143.313 186.165L144.678 185.594Z" fill="white"/>
<path d="M124.475 200.655L117.188 201.945L116.969 200.704L124.255 199.414L124.475 200.655ZM123.191 194.322L114.9 195.789L114.677 194.529L124.425 192.803L126.866 206.589L117.413 208.262L117.19 207.002L125.186 205.586L123.191 194.322Z" fill="white"/>
</svg>
