{
	"asset":{
		"generator":"Khronos glTF Blender I/O v3.6.27",
		"version":"2.0"
	},
	"scene":0,
	"scenes":[
		{
			"name":"Scene",
			"nodes":[
				0,
				1
			]
		}
	],
	"nodes":[
		{
			"mesh":0,
			"name":"Mball.001"
		},
		{
			"mesh":1,
			"name":"Mball.002"
		}
	],
	"meshes":[
		{
			"name":"Mesh",
			"primitives":[
				{
					"attributes":{
						"POSITION":0,
						"NORMAL":1
					},
					"indices":2
				}
			]
		},
		{
			"name":"Mesh.001",
			"primitives":[
				{
					"attributes":{
						"POSITION":3,
						"NORMAL":4
					},
					"indices":5
				}
			]
		}
	],
	"accessors":[
		{
			"bufferView":0,
			"componentType":5126,
			"count":8016,
			"max":[
				1.2876813411712646,
				2.3156745433807373,
				2.9475910663604736
			],
			"min":[
				-1.3365399837493896,
				-1.6807461977005005,
				-2.9762368202209473
			],
			"type":"VEC3"
		},
		{
			"bufferView":1,
			"componentType":5126,
			"count":8016,
			"type":"VEC3"
		},
		{
			"bufferView":2,
			"componentType":5123,
			"count":48084,
			"type":"SCALAR"
		},
		{
			"bufferView":3,
			"componentType":5126,
			"count":10356,
			"max":[
				1.2885100841522217,
				3.139523983001709,
				3.486785411834717
			],
			"min":[
				-1.448704719543457,
				-1.7028453350067139,
				-3.328042507171631
			],
			"type":"VEC3"
		},
		{
			"bufferView":4,
			"componentType":5126,
			"count":10356,
			"type":"VEC3"
		},
		{
			"bufferView":5,
			"componentType":5123,
			"count":62124,
			"type":"SCALAR"
		}
	],
	"bufferViews":[
		{
			"buffer":0,
			"byteLength":96192,
			"byteOffset":0,
			"target":34962
		},
		{
			"buffer":0,
			"byteLength":96192,
			"byteOffset":96192,
			"target":34962
		},
		{
			"buffer":0,
			"byteLength":96168,
			"byteOffset":192384,
			"target":34963
		},
		{
			"buffer":0,
			"byteLength":124272,
			"byteOffset":288552,
			"target":34962
		},
		{
			"buffer":0,
			"byteLength":124272,
			"byteOffset":412824,
			"target":34962
		},
		{
			"buffer":0,
			"byteLength":124248,
			"byteOffset":537096,
			"target":34963
		}
	],
	"buffers":[
		{
			"byteLength":661344,
			"uri":"data:application/octet-stream;base64,"
		}
	]
}
