{
	"asset":{
		"generator":"Khronos glTF Blender I/O v3.6.27",
		"version":"2.0"
	},
	"scene":0,
	"scenes":[
		{
			"name":"Scene",
			"nodes":[
				0
			]
		}
	],
	"nodes":[
		{
			"mesh":0,
			"name":"Mball.001",
			"scale":[
				1.5600799322128296,
				1.5600799322128296,
				1.5600799322128296
			]
		}
	],
	"meshes":[
		{
			"name":"Mesh.001",
			"primitives":[
				{
					"attributes":{
						"POSITION":0,
						"NORMAL":1
					},
					"indices":2
				}
			]
		}
	],
	"accessors":[
		{
			"bufferView":0,
			"componentType":5126,
			"count":7174,
			"max":[
				2.208799362182617,
				2.6610002517700195,
				1.2885866165161133
			],
			"min":[
				-3.621253490447998,
				-1.1807191371917725,
				-1.2885866165161133
			],
			"type":"VEC3"
		},
		{
			"bufferView":1,
			"componentType":5126,
			"count":7174,
			"type":"VEC3"
		},
		{
			"bufferView":2,
			"componentType":5123,
			"count":43032,
			"type":"SCALAR"
		}
	],
	"bufferViews":[
		{
			"buffer":0,
			"byteLength":86088,
			"byteOffset":0,
			"target":34962
		},
		{
			"buffer":0,
			"byteLength":86088,
			"byteOffset":86088,
			"target":34962
		},
		{
			"buffer":0,
			"byteLength":86064,
			"byteOffset":172176,
			"target":34963
		}
	],
	"buffers":[
		{
			"byteLength":258240,
			"uri":"data:application/octet-stream;base64,"
		}
	]
}
