{
	"asset":{
		"generator":"Khronos glTF Blender I/O v3.6.27",
		"version":"2.0"
	},
	"extensionsUsed":[
		"KHR_materials_specular",
		"KHR_materials_ior"
	],
	"scene":0,
	"scenes":[
		{
			"name":"Scene",
			"nodes":[
				0
			]
		}
	],
	"nodes":[
		{
			"mesh":0,
			"name":"WINGS.001",
			"scale":[
				1.8000000715255737,
				0.36000001430511475,
				0.36000001430511475
			],
			"translation":[
				-1.5909966230392456,
				0,
				0
			]
		}
	],
	"materials":[
		{
			"doubleSided":true,
			"name":"Plaster",
			"pbrMetallicRoughness":{
				"metallicFactor":0
			}
		},
		{
			"doubleSided":true,
			"extensions":{
				"KHR_materials_specular":{
					"specularColorFactor":[
						0.7868595283765224,
						0.7868595283765224,
						0.7868595283765224
					]
				},
				"KHR_materials_ior":{
					"ior":1.4500000476837158
				}
			},
			"name":"ENGINE",
			"pbrMetallicRoughness":{
				"metallicFactor":0.5454545617103577,
				"roughnessFactor":0.2863636314868927
			}
		}
	],
	"meshes":[
		{
			"name":"Plane.001",
			"primitives":[
				{
					"attributes":{
						"POSITION":0,
						"NORMAL":1,
						"TEXCOORD_0":2,
						"TEXCOORD_1":3
					},
					"indices":4,
					"material":0
				},
				{
					"attributes":{
						"POSITION":5,
						"NORMAL":6,
						"TEXCOORD_0":7,
						"TEXCOORD_1":8
					},
					"indices":9,
					"material":1
				}
			]
		}
	],
	"accessors":[
		{
			"bufferView":0,
			"componentType":5126,
			"count":4785,
			"max":[
				1.627773642539978,
				1.583952784538269,
				8.623297691345215
			],
			"min":[
				-1.7827210426330566,
				-1.0549029111862183,
				-8.382224082946777
			],
			"type":"VEC3"
		},
		{
			"bufferView":1,
			"componentType":5126,
			"count":4785,
			"type":"VEC3"
		},
		{
			"bufferView":2,
			"componentType":5126,
			"count":4785,
			"type":"VEC2"
		},
		{
			"bufferView":3,
			"componentType":5126,
			"count":4785,
			"type":"VEC2"
		},
		{
			"bufferView":4,
			"componentType":5123,
			"count":11265,
			"type":"SCALAR"
		},
		{
			"bufferView":5,
			"componentType":5126,
			"count":7332,
			"max":[
				0.13829198479652405,
				0.2610052824020386,
				5.861084938049316
			],
			"min":[
				-0.15554773807525635,
				-1.170236587524414,
				-6.095976829528809
			],
			"type":"VEC3"
		},
		{
			"bufferView":6,
			"componentType":5126,
			"count":7332,
			"type":"VEC3"
		},
		{
			"bufferView":7,
			"componentType":5126,
			"count":7332,
			"type":"VEC2"
		},
		{
			"bufferView":8,
			"componentType":5126,
			"count":7332,
			"type":"VEC2"
		},
		{
			"bufferView":9,
			"componentType":5123,
			"count":11736,
			"type":"SCALAR"
		}
	],
	"bufferViews":[
		{
			"buffer":0,
			"byteLength":57420,
			"byteOffset":0,
			"target":34962
		},
		{
			"buffer":0,
			"byteLength":57420,
			"byteOffset":57420,
			"target":34962
		},
		{
			"buffer":0,
			"byteLength":38280,
			"byteOffset":114840,
			"target":34962
		},
		{
			"buffer":0,
			"byteLength":38280,
			"byteOffset":153120,
			"target":34962
		},
		{
			"buffer":0,
			"byteLength":22530,
			"byteOffset":191400,
			"target":34963
		},
		{
			"buffer":0,
			"byteLength":87984,
			"byteOffset":213932,
			"target":34962
		},
		{
			"buffer":0,
			"byteLength":87984,
			"byteOffset":301916,
			"target":34962
		},
		{
			"buffer":0,
			"byteLength":58656,
			"byteOffset":389900,
			"target":34962
		},
		{
			"buffer":0,
			"byteLength":58656,
			"byteOffset":448556,
			"target":34962
		},
		{
			"buffer":0,
			"byteLength":23472,
			"byteOffset":507212,
			"target":34963
		}
	],
	"buffers":[
		{
			"byteLength":530684,
			"uri":"data:application/octet-stream;base64,"
		}
	]
}
