{
	"asset":{
		"generator":"Khronos glTF Blender I/O v3.6.27",
		"version":"2.0"
	},
	"extensionsUsed":[
		"KHR_materials_specular",
		"KHR_materials_ior"
	],
	"scene":0,
	"scenes":[
		{
			"name":"Scene",
			"nodes":[
				0
			]
		}
	],
	"nodes":[
		{
			"mesh":0,
			"name":"WINGS",
			"scale":[
				1.8000000715255737,
				0.36000001430511475,
				0.36000001430511475
			],
			"translation":[
				-1.5909966230392456,
				0,
				0
			]
		}
	],
	"materials":[
		{
			"doubleSided":true,
			"name":"Plaster",
			"pbrMetallicRoughness":{
				"metallicFactor":0
			}
		},
		{
			"doubleSided":true,
			"extensions":{
				"KHR_materials_specular":{
					"specularColorFactor":[
						0.7868595283765224,
						0.7868595283765224,
						0.7868595283765224
					]
				},
				"KHR_materials_ior":{
					"ior":1.4500000476837158
				}
			},
			"name":"ENGINE",
			"pbrMetallicRoughness":{
				"metallicFactor":0.5454545617103577,
				"roughnessFactor":0.2863636314868927
			}
		}
	],
	"meshes":[
		{
			"name":"Plane",
			"primitives":[
				{
					"attributes":{
						"POSITION":0,
						"NORMAL":1,
						"TEXCOORD_0":2,
						"TEXCOORD_1":3
					},
					"indices":4,
					"material":0
				},
				{
					"attributes":{
						"POSITION":5,
						"NORMAL":6,
						"TEXCOORD_0":7,
						"TEXCOORD_1":8
					},
					"indices":9,
					"material":1
				}
			]
		}
	],
	"accessors":[
		{
			"bufferView":0,
			"componentType":5126,
			"count":4014,
			"max":[
				1.7035984992980957,
				1.602001667022705,
				8.623297691345215
			],
			"min":[
				-1.9370498657226562,
				-1.0549027919769287,
				-8.382224082946777
			],
			"type":"VEC3"
		},
		{
			"bufferView":1,
			"componentType":5126,
			"count":4014,
			"type":"VEC3"
		},
		{
			"bufferView":2,
			"componentType":5126,
			"count":4014,
			"type":"VEC2"
		},
		{
			"bufferView":3,
			"componentType":5126,
			"count":4014,
			"type":"VEC2"
		},
		{
			"bufferView":4,
			"componentType":5123,
			"count":6354,
			"type":"SCALAR"
		},
		{
			"bufferView":5,
			"componentType":5126,
			"count":7332,
			"max":[
				0.13829192519187927,
				0.4657806158065796,
				5.861084938049316
			],
			"min":[
				-0.15554779767990112,
				-0.965461254119873,
				-6.095976829528809
			],
			"type":"VEC3"
		},
		{
			"bufferView":6,
			"componentType":5126,
			"count":7332,
			"type":"VEC3"
		},
		{
			"bufferView":7,
			"componentType":5126,
			"count":7332,
			"type":"VEC2"
		},
		{
			"bufferView":8,
			"componentType":5126,
			"count":7332,
			"type":"VEC2"
		},
		{
			"bufferView":9,
			"componentType":5123,
			"count":11736,
			"type":"SCALAR"
		}
	],
	"bufferViews":[
		{
			"buffer":0,
			"byteLength":48168,
			"byteOffset":0,
			"target":34962
		},
		{
			"buffer":0,
			"byteLength":48168,
			"byteOffset":48168,
			"target":34962
		},
		{
			"buffer":0,
			"byteLength":32112,
			"byteOffset":96336,
			"target":34962
		},
		{
			"buffer":0,
			"byteLength":32112,
			"byteOffset":128448,
			"target":34962
		},
		{
			"buffer":0,
			"byteLength":12708,
			"byteOffset":160560,
			"target":34963
		},
		{
			"buffer":0,
			"byteLength":87984,
			"byteOffset":173268,
			"target":34962
		},
		{
			"buffer":0,
			"byteLength":87984,
			"byteOffset":261252,
			"target":34962
		},
		{
			"buffer":0,
			"byteLength":58656,
			"byteOffset":349236,
			"target":34962
		},
		{
			"buffer":0,
			"byteLength":58656,
			"byteOffset":407892,
			"target":34962
		},
		{
			"buffer":0,
			"byteLength":23472,
			"byteOffset":466548,
			"target":34963
		}
	],
	"buffers":[
		{
			"byteLength":490020,
			"uri":"data:application/octet-stream;base64,"
		}
	]
}
